<?xml version="1.0" encoding="UTF-8"?>
<svg id="Layer_1" data-name="Layer 1" xmlns="http://www.w3.org/2000/svg" viewBox="0 0 154 154">
  <path d="M148.87,61.6v-15.4h-5.13v-10.27h-5.13v-10.27h-5.13v-5.13h-5.13v-5.13h-10.27v-5.13h-10.27v-5.13h-15.4V0h-30.8v5.13h-15.4v5.13h-10.27v5.13h-10.27v5.13h-5.13v5.13h-5.13v10.27h-5.13v10.27h-5.13v15.4H0v30.8h5.13v15.4h5.13v10.27h5.13v10.27h5.13v5.13h5.13v5.13h10.27v5.13h10.27v5.13h15.4v5.13h30.8v-5.13h15.4v-5.13h10.27v-5.13h10.27v-5.13h5.13v-5.13h5.13v-10.27h5.13v-10.27h5.13v-15.4h5.13v-30.8h-5.13ZM138.6,92.4v15.4h-5.13v10.27h-5.13v5.13h-5.13v5.13h-5.13v5.13h-10.27v5.13h-15.4v5.13h-30.8v-5.13h-15.4v-5.13h-10.27v-5.13h-5.13v-5.13h-5.13v-5.13h-5.13v-10.27h-5.13v-15.4h-5.13v-30.8h5.13v-15.4h5.13v-10.27h5.13v-5.13h5.13v-5.13h5.13v-5.13h10.27v-5.13h15.4v-5.13h30.8v5.13h15.4v5.13h10.27v5.13h5.13v5.13h5.13v5.13h5.13v10.27h5.13v15.4h5.13v30.8h-5.13Z" fill="#070909"/>
</svg>