<?xml version="1.0" encoding="UTF-8"?>
<svg id="Layer_1" xmlns="http://www.w3.org/2000/svg" version="1.1" viewBox="0 0 154 154">
  <!-- Generator: Adobe Illustrator 29.7.1, SVG Export Plug-In . SVG Version: 2.1.1 Build 8)  -->
  <defs>
    <style>
      .st0 {
        fill: #000000;
      }
    </style>
  </defs>
  <path class="st0" d="M147.9,62.6v-15.4h-5.1v-10.3h-5.1v-5.1h-5.1v-5.1h-5.1v-5.1h-5.1v-5.1h-5.1v-5.1h-10.3v-5.1h-15.4V1h-28.8v5.1h-15.4v5.1h-10.3v5.1h-5.1v5.1h-5.1v5.1h-5.1v5.1h-5.1v5.1h-5.1v10.3h-5.1v15.4H1v28.8h5.1v15.4h5.1v10.3h5.1v5.1h5.1v5.1h5.1v5.1h5.1v5.1h5.1v5.1h10.3v5.1h15.4v5.1h28.8v-5.1h15.4v-5.1h10.3v-5.1h5.1v-5.1h5.1v-5.1h5.1v-5.1h5.1v-5.1h5.1v-10.3h5.1v-15.4h5.1v-28.8h-5.1,0ZM83.1,83.1h-12.3v-12.3h12.3s0,12.3,0,12.3Z"/>
</svg>