<?xml version="1.0" encoding="UTF-8"?>
<svg id="Layer_1" data-name="Layer 1" xmlns="http://www.w3.org/2000/svg" viewBox="0 0 154 154">
  <polygon points="148.87 61.6 148.87 56.47 148.87 51.33 148.87 46.2 143.73 46.2 143.73 41.07 143.73 35.93 138.6 35.93 138.6 30.8 138.6 25.67 133.47 25.67 133.47 20.53 128.33 20.53 128.33 15.4 123.2 15.4 118.07 15.4 118.07 10.27 112.93 10.27 107.8 10.27 107.8 5.13 102.67 5.13 97.53 5.13 92.4 5.13 92.4 0 87.27 0 82.13 0 77 0 71.87 0 66.73 0 61.6 0 61.6 5.13 56.47 5.13 51.33 5.13 46.2 5.13 46.2 10.27 41.07 10.27 35.93 10.27 35.93 15.4 30.8 15.4 25.67 15.4 25.67 20.53 20.53 20.53 20.53 25.67 15.4 25.67 15.4 30.8 15.4 35.93 10.27 35.93 10.27 41.07 10.27 46.2 5.13 46.2 5.13 51.33 5.13 56.47 5.13 61.6 0 61.6 0 66.73 0 71.87 0 77 0 82.13 0 87.27 0 92.4 5.13 92.4 5.13 97.53 5.13 102.67 5.13 107.8 10.27 107.8 10.27 112.93 10.27 118.07 15.4 118.07 15.4 123.2 15.4 128.33 20.53 128.33 20.53 133.47 25.67 133.47 25.67 138.6 30.8 138.6 35.93 138.6 35.93 143.73 41.07 143.73 46.2 143.73 46.2 148.87 51.33 148.87 56.47 148.87 61.6 148.87 61.6 154 66.73 154 71.87 154 77 154 82.13 154 87.27 154 92.4 154 92.4 148.87 97.53 148.87 102.67 148.87 107.8 148.87 107.8 143.73 112.93 143.73 118.07 143.73 118.07 138.6 123.2 138.6 128.33 138.6 128.33 133.47 133.47 133.47 133.47 128.33 138.6 128.33 138.6 123.2 138.6 118.07 143.73 118.07 143.73 112.93 143.73 107.8 148.87 107.8 148.87 102.67 148.87 97.53 148.87 92.4 154 92.4 154 87.27 154 82.13 154 77 154 71.87 154 66.73 154 61.6 148.87 61.6" fill="#070909"/>
</svg>