<?xml version="1.0" encoding="UTF-8"?>
<svg id="Layer_1" data-name="Layer 1" xmlns="http://www.w3.org/2000/svg" viewBox="0 0 154 154">
  <polygon points="82.13 148.87 77 148.87 71.87 148.87 66.73 148.87 61.6 148.87 61.6 154 66.73 154 71.87 154 77 154 82.13 154 87.27 154 92.4 154 92.4 148.87 87.27 148.87 82.13 148.87" fill="#231f20"/>
  <polygon points="97.53 143.73 92.4 143.73 92.4 148.87 97.53 148.87 102.67 148.87 107.8 148.87 107.8 143.73 102.67 143.73 97.53 143.73" fill="#231f20"/>
  <polygon points="56.47 143.73 51.33 143.73 46.2 143.73 46.2 148.87 51.33 148.87 56.47 148.87 61.6 148.87 61.6 143.73 56.47 143.73" fill="#231f20"/>
  <polygon points="107.8 138.6 107.8 143.73 112.93 143.73 118.07 143.73 118.07 138.6 112.93 138.6 107.8 138.6" fill="#231f20"/>
  <polygon points="41.07 138.6 35.93 138.6 35.93 143.73 41.07 143.73 46.2 143.73 46.2 138.6 41.07 138.6" fill="#231f20"/>
  <rect x="123.2" y="128.33" width="5.13" height="5.13" fill="#231f20"/>
  <rect x="118.07" y="133.47" width="5.13" height="5.13" fill="#231f20"/>
  <rect x="30.8" y="133.47" width="5.13" height="5.13" fill="#231f20"/>
  <rect x="25.67" y="128.33" width="5.13" height="5.13" fill="#231f20"/>
  <rect x="128.33" y="123.2" width="5.13" height="5.13" fill="#231f20"/>
  <rect x="20.53" y="123.2" width="5.13" height="5.13" fill="#231f20"/>
  <rect x="133.47" y="118.07" width="5.13" height="5.13" fill="#231f20"/>
  <rect x="15.4" y="118.07" width="5.13" height="5.13" fill="#231f20"/>
  <polygon points="138.6 112.93 138.6 118.07 143.73 118.07 143.73 112.93 143.73 107.8 138.6 107.8 138.6 112.93" fill="#231f20"/>
  <polygon points="15.4 107.8 10.27 107.8 10.27 112.93 10.27 118.07 15.4 118.07 15.4 112.93 15.4 107.8" fill="#231f20"/>
  <polygon points="10.27 97.53 10.27 92.4 5.13 92.4 5.13 97.53 5.13 102.67 5.13 107.8 10.27 107.8 10.27 102.67 10.27 97.53" fill="#231f20"/>
  <polygon points="143.73 97.53 143.73 102.67 143.73 107.8 148.87 107.8 148.87 102.67 148.87 97.53 148.87 92.4 143.73 92.4 143.73 97.53" fill="#231f20"/>
  <polygon points="5.13 82.13 5.13 77 5.13 71.87 5.13 66.73 5.13 61.6 0 61.6 0 66.73 0 71.87 0 77 0 82.13 0 87.27 0 92.4 5.13 92.4 5.13 87.27 5.13 82.13" fill="#231f20"/>
  <polygon points="148.87 61.6 148.87 66.73 148.87 71.87 148.87 77 148.87 82.13 148.87 87.27 148.87 92.4 154 92.4 154 87.27 154 82.13 154 77 154 71.87 154 66.73 154 61.6 148.87 61.6" fill="#231f20"/>
  <polygon points="10.27 56.47 10.27 51.33 10.27 46.2 5.13 46.2 5.13 51.33 5.13 56.47 5.13 61.6 10.27 61.6 10.27 56.47" fill="#231f20"/>
  <polygon points="143.73 56.47 143.73 61.6 148.87 61.6 148.87 56.47 148.87 51.33 148.87 46.2 143.73 46.2 143.73 51.33 143.73 56.47" fill="#231f20"/>
  <polygon points="138.6 46.2 143.73 46.2 143.73 41.07 143.73 35.93 138.6 35.93 138.6 41.07 138.6 46.2" fill="#231f20"/>
  <polygon points="15.4 41.07 15.4 35.93 10.27 35.93 10.27 41.07 10.27 46.2 15.4 46.2 15.4 41.07" fill="#231f20"/>
  <rect x="133.47" y="30.8" width="5.13" height="5.13" fill="#231f20"/>
  <rect x="15.4" y="30.8" width="5.13" height="5.13" fill="#231f20"/>
  <rect x="128.33" y="25.67" width="5.13" height="5.13" fill="#231f20"/>
  <rect x="118.07" y="15.4" width="5.13" height="5.13" fill="#231f20"/>
  <rect x="30.8" y="15.4" width="5.13" height="5.13" fill="#231f20"/>
  <polygon points="112.93 15.4 118.07 15.4 118.07 10.27 112.93 10.27 107.8 10.27 107.8 15.4 112.93 15.4" fill="#231f20"/>
  <polygon points="46.2 15.4 46.2 10.27 41.07 10.27 35.93 10.27 35.93 15.4 41.07 15.4 46.2 15.4" fill="#231f20"/>
  <polygon points="97.53 10.27 102.67 10.27 107.8 10.27 107.8 5.13 102.67 5.13 97.53 5.13 92.4 5.13 92.4 10.27 97.53 10.27" fill="#231f20"/>
  <polygon points="56.47 10.27 61.6 10.27 61.6 5.13 56.47 5.13 51.33 5.13 46.2 5.13 46.2 10.27 51.33 10.27 56.47 10.27" fill="#231f20"/>
  <polygon points="71.87 5.13 77 5.13 82.13 5.13 87.27 5.13 92.4 5.13 92.4 0 87.27 0 82.13 0 77 0 71.87 0 66.73 0 61.6 0 61.6 5.13 66.73 5.13 71.87 5.13" fill="#231f20"/>
  <polygon points="77 66.73 77 66.73 71.87 66.73 71.87 71.87 77 71.87 77 71.87 82.13 71.87 82.13 66.73 77 66.73" fill="#231f20"/>
  <polygon points="82.13 77 82.13 82.13 87.27 82.13 87.27 77 87.27 71.87 82.13 71.87 82.13 77" fill="#231f20"/>
  <polygon points="71.87 71.87 66.73 71.87 66.73 77 66.73 82.13 71.87 82.13 71.87 77 71.87 71.87" fill="#231f20"/>
  <polygon points="77 82.13 71.87 82.13 71.87 87.27 77 87.27 77 87.27 82.13 87.27 82.13 82.13 77 82.13 77 82.13" fill="#231f20"/>
  <rect x="20.53" y="25.67" width="5.13" height="5.13" fill="#231f20"/>
  <rect x="25.67" y="20.53" width="5.13" height="5.13" fill="#231f20"/>
  <rect x="123.2" y="20.53" width="5.13" height="5.13" fill="#231f20"/>
</svg>